# xmcd
#
# Track frame offsets:
#	150
#	17022
#	35402
#	51925
#	68177
#	103870
#	120857
#	143425
#	166890
#	187905
#	213235
#	234305
#
# Disc length: 3519 seconds
#
# Revision: 0
# Processed by: cddbd v1.5.1PL2 Copyright (c) Steve Scherf et al.
# Submitted via: dBpowerAMP V4.0
#
DISCID=940dbd0c
DTITLE=Mn' Blues - Louise, Louise
DYEAR=1900
DGENRE=Blues
TTITLE0=Louise, Louise
TTITLE1=Mr le Maire
TTITLE2=Everyday
TTITLE3=I don't know
TTITLE4=I wonder I'll find
TTITLE5=Ta fille se barre
TTITLE6=L'etranger
TTITLE7=Dust my broom
TTITLE8=Chien blues
TTITLE9=The Thrill is gone
TTITLE10=Toto va son ch'min
TTITLE11=My babe
EXTD=
EXTT0=
EXTT1=
EXTT2=
EXTT3=
EXTT4=
EXTT5=
EXTT6=
EXTT7=
EXTT8=
EXTT9=
EXTT10=
EXTT11=
PLAYORDER=
